PathFileType	4	(X/Y/Z)	C:\Users\Basilio\Documents\Thesis Gigler\squatting_fais\c3dfiles\073\SLS_back_pre1\markers_experimental.trc
DataRate	CameraRate	NumFrames	NumMarkers	Units	OrigDataRate	OrigDataStartFrame	OrigNumFrames
200.000000	200.000000	4	61	mm	200.000000	953	1271
Frame#	Time	FHD			LBHD			RBHD			C7			T10			CLAV			LSHO			LUUPA			LMUPA			LDUPA			LLEP			LMEP			LRAD			LUL			LRFIN			RSHO			RUPA1			RMUPA			RDUPA			RLEP			RMEP			RRAD			RUL			RUFIN			LASI			RASI			USACR			LSACR			RSACR			LTHI1			LTHI2			LTHI3			LTHI4			LLFC			LTIB1			LTIB2			LTIB3			LTIB4			LLMAL			LMMAL			LHEE			LMT1			LMT2			LMT5			RTHI			RTHI2			RTHI3			RTHI4			RLFC			RMFC			RTIB1			RTIB2			RTIB3			RTIB4			RLMAL			RMMAL			RHEE			RMT1			RMT2			RMT5			LMFC			
		X1	Y1	Z1	X2	Y2	Z2	X3	Y3	Z3	X4	Y4	Z4	X5	Y5	Z5	X6	Y6	Z6	X7	Y7	Z7	X8	Y8	Z8	X9	Y9	Z9	X10	Y10	Z10	X11	Y11	Z11	X12	Y12	Z12	X13	Y13	Z13	X14	Y14	Z14	X15	Y15	Z15	X16	Y16	Z16	X17	Y17	Z17	X18	Y18	Z18	X19	Y19	Z19	X20	Y20	Z20	X21	Y21	Z21	X22	Y22	Z22	X23	Y23	Z23	X24	Y24	Z24	X25	Y25	Z25	X26	Y26	Z26	X27	Y27	Z27	X28	Y28	Z28	X29	Y29	Z29	X30	Y30	Z30	X31	Y31	Z31	X32	Y32	Z32	X33	Y33	Z33	X34	Y34	Z34	X35	Y35	Z35	X36	Y36	Z36	X37	Y37	Z37	X38	Y38	Z38	X39	Y39	Z39	X40	Y40	Z40	X41	Y41	Z41	X42	Y42	Z42	X43	Y43	Z43	X44	Y44	Z44	X45	Y45	Z45	X46	Y46	Z46	X47	Y47	Z47	X48	Y48	Z48	X49	Y49	Z49	X50	Y50	Z50	X51	Y51	Z51	X52	Y52	Z52	X53	Y53	Z53	X54	Y54	Z54	X55	Y55	Z55	X56	Y56	Z56	X57	Y57	Z57	X58	Y58	Z58	X59	Y59	Z59	X60	Y60	Z60	X61	Y61	Z61	

954	4.765	-98.33123779296878	1677.983154296875	-729.9411621093751	-233.2310791015626	1647.172485351563	-749.9248046875001	-251.3382568359376	1626.263793945313	-616.0280151367189	-283.9217224121094	1534.06787109375	-679.4985351562501	-386.5022888183595	1216.855712890625	-718.6320800781251	-169.1228485107422	1436.336303710938	-689.7726440429689	-203.4764099121094	1495.962036132813	-826.8538208007815	-132.0070343017578	1424.056030273438	-930.4827880859377	-88.92372131347658	1437.859985351563	-907.748962402344	-72.18080902099611	1392.768432617188	-945.478210449219	29.09175300598145	1360.301513671875	-955.4783325195315	20.92833900451661	1300.537231445313	-918.4172363281252	292.2097473144532	1346.648193359375	-851.6940917968752	293.6510314941407	1350.240478515625	-926.7327880859377	374.6369934082032	1349.510498046875	-846.5454711914065	-176.6903076171875	1467.161743164063	-542.1533203125001	-91.87765502929689	1344.661499023438	-461.9682617187501	-51.54555130004884	1364.683349609375	-478.8265075683595	-32.23403930664063	1309.891235351563	-464.1053466796876	56.3536720275879	1283.87255859375	-472.7613525390626	43.4280014038086	1239.529663085938	-541.4475708007814	305.1410827636719	1300.588256835938	-590.6229248046876	318.2950744628907	1297.796264648438	-519.1959228515626	398.4310607910157	1320.6787109375	-595.4398193359376	-245.7741699218751	1033.511474609375	-851.4918212890627	-251.9007873535157	1025.484008789063	-603.0207519531251	-422.7755432128907	1111.953735351563	-727.6029052734376	-435.8861083984376	1085.286499023438	-757.0643920898439	-443.5795288085939	1082.717163085938	-701.1776123046876	-257.5039062500001	717.9803466796876	-932.6965332031252	-210.4133758544922	647.1469726562501	-923.5354614257815	-168.5229949951172	655.3040161132814	-898.281188964844	-233.1581573486329	591.6964111328126	-916.909362792969	-239.5105743408204	545.5458374023439	-920.010192871094	-387.419158935547	434.5689392089845	-862.0656738281252	-443.8739624023439	478.0285644531251	-912.3416137695315	-439.5322570800782	439.8146057128907	-891.4278564453127	-512.9831542968751	420.6936340332032	-853.436462402344	-643.6471557617189	449.6887512207032	-875.451599121094	-612.6148681640626	448.2022705078126	-791.4549560546877	-682.7468261718751	504.291229248047	-832.7272949218752	-645.1036376953126	286.3934631347657	-784.816833496094	-651.1730346679689	280.3944091796876	-822.2070312500002	-681.2886962890626	309.0003967285157	-875.3421630859377	-357.1560058593751	799.6545410156252	-549.5766601562501	-321.7608642578126	744.0969848632814	-548.7912597656251	-288.0285949707032	745.6835327148439	-548.1085205078126	-343.9372558593751	669.0939331054689	-578.1582031250001	-324.7507324218751	519.8159790039064	-600.8114013671876	-302.0832519531251	517.2254028320314	-729.3177490234376	-278.4684143066407	361.5376586914063	-694.3513793945314	-316.0038452148438	276.6157836914063	-638.6469726562501	-286.2817687988282	276.6756896972657	-676.6105957031251	-302.4627075195313	235.7536621093751	-715.0682373046876	-361.2503356933594	99.56304931640628	-681.9209594726564	-349.9367980957032	134.9546203613282	-764.0335693359376	-430.3703002929689	85.58604431152345	-742.1640014648439	-206.4338073730469	57.00944900512697	-758.2565307617189	-205.8844757080079	50.38459396362306	-718.0824584960939	-248.7772674560547	32.67362594604493	-669.1107788085939	-237.3545532226563	535.8305664062501	-784.1125488281252	
955	4.77	-96.70318603515628	1679.088745117188	-730.0447998046876	-234.1624298095704	1648.015502929688	-749.8086547851564	-252.1572570800782	1627.019653320313	-615.9949951171876	-284.7883605957032	1534.671508789063	-679.3560791015626	-386.3330078125001	1217.12451171875	-718.4822998046876	-169.8511810302735	1437.256958007813	-689.6671752929689	-204.156967163086	1496.671752929688	-826.9000244140627	-132.8336181640625	1424.63037109375	-930.4185791015627	-89.80274963378908	1438.40576171875	-907.7645263671877	-73.1052932739258	1393.3486328125	-945.4934082031252	28.04979515075684	1360.79150390625	-955.4196777343752	20.1272144317627	1301.009399414063	-918.3829345703127	291.3864746093751	1346.778442382813	-851.7734375000002	292.8187561035157	1350.40576171875	-926.8692016601565	373.8318176269532	1349.58203125	-846.7697753906252	-177.2710418701172	1467.74951171875	-541.9265747070314	-92.47804260253908	1345.0595703125	-461.9647827148439	-52.21981430053712	1365.037109375	-478.7661132812501	-32.88632583618165	1310.20947265625	-464.0948791503907	55.66801071166994	1284.157958984375	-472.9212341308595	42.60660934448243	1239.913208007813	-541.5737915039064	304.4346008300782	1299.863891601563	-590.9146118164064	317.6088256835938	1297.902221679688	-519.4445190429689	397.7110900878907	1320.64306640625	-595.8152465820314	-245.1766662597657	1034.403198242188	-851.745300292969	-250.9730224609376	1026.007934570313	-603.1732177734376	-422.1764526367189	1112.293701171875	-727.5323486328126	-435.107391357422	1085.532592773438	-756.9989624023439	-442.8706665039064	1082.995971679688	-701.0985717773439	-256.9675903320313	718.4525756835939	-933.0044555664065	-209.9021606445313	647.7282104492189	-923.6956787109377	-168.0094146728516	655.7714843750001	-898.5610961914065	-232.7939147949219	592.1513061523439	-917.164978027344	-239.2148742675782	545.9568481445314	-920.3052368164065	-387.0032958984376	434.8258666992189	-862.1971435546877	-443.3663940429689	478.188690185547	-912.6005859375002	-439.0628356933595	439.9640197753907	-891.6607666015627	-512.4426879882814	420.8067016601564	-853.7967529296877	-643.1049804687501	449.6673889160157	-875.7440185546877	-612.2094116210939	448.1632080078126	-791.7543945312502	-682.3571777343751	504.2117309570314	-833.0252685546877	-644.9916992187501	286.3365478515626	-784.4404296875002	-650.4934082031251	280.2963256835938	-822.459899902344	-680.7175292968751	308.7403259277344	-875.594421386719	-357.1067199707032	800.219665527344	-549.8963012695314	-322.0050048828126	744.4033203125001	-549.2517700195314	-288.3135681152344	745.8355712890626	-548.6093139648439	-344.6805419921876	669.5253295898439	-578.5814819335939	-326.2198181152344	520.1810302734376	-601.3370361328126	-303.6976623535157	517.4075927734376	-729.8043823242189	-279.5591735839844	361.8392028808594	-694.8815307617189	-316.7472229003907	276.8617248535157	-638.9624023437501	-287.0834655761719	277.0187683105469	-677.0849609375001	-302.9142761230469	236.0303955078126	-715.3774414062501	-361.2851257324219	99.64695739746097	-682.0646362304689	-350.1823120117188	134.8935089111328	-764.1531372070314	-430.371795654297	85.55208587646486	-742.2665405273439	-206.4437103271485	56.94153594970705	-758.3230590820314	-205.875473022461	50.36738586425783	-718.2124023437501	-248.7710876464844	32.68478012084962	-669.1204833984376	-236.8054962158204	536.2168579101564	-784.4370117187502	
956	4.775	-99.6064147949219	1679.477172851563	-729.6588134765626	-234.9827423095704	1648.7666015625	-749.6610717773439	-253.0362091064454	1627.63623046875	-615.9863891601564	-285.6005859375001	1535.182006835938	-679.2792968750001	-386.1323242187501	1217.3037109375	-718.3343505859376	-170.6263122558594	1438.152221679688	-689.6140136718751	-204.9451293945313	1497.345581054688	-826.8677368164065	-133.7510375976563	1425.098876953125	-930.4886474609377	-90.63794708251955	1438.923461914063	-907.755065917969	-73.92542266845705	1393.8125	-945.5501098632815	27.36027908325196	1361.238159179688	-955.4486083984377	19.17284584045411	1301.491333007813	-918.483337402344	290.5284729003907	1347.0078125	-851.901550292969	291.9001770019532	1350.663818359375	-926.8762817382815	373.0091247558594	1349.704345703125	-846.8882446289065	-177.8423461914063	1468.3369140625	-541.7584838867189	-93.10143280029298	1345.465454101563	-461.911834716797	-52.77796554565431	1365.4599609375	-478.7597656250001	-33.50297164916993	1310.584838867188	-464.1385498046876	54.95793914794923	1284.418701171875	-473.0691833496095	41.9333610534668	1240.197509765625	-541.7147827148439	303.7599182128907	1299.967651367188	-591.2587280273439	316.9847412109376	1297.99951171875	-519.6086425781251	397.0796813964845	1320.6123046875	-596.0341186523439	-244.5962524414063	1035.287109375	-851.8801879882815	-250.0058288574219	1026.538940429688	-603.2905883789064	-421.620574951172	1112.537841796875	-727.4380493164064	-434.6031494140626	1085.812866210938	-756.9346313476564	-442.0428161621095	1083.190795898438	-700.9876708984376	-256.4868469238282	718.9528198242189	-933.069763183594	-209.5860137939454	648.2241210937501	-923.840026855469	-167.4760284423828	656.2445678710939	-898.8701171875002	-232.4839630126954	592.6105957031251	-917.3836059570315	-238.8492736816407	546.3642578125001	-920.587097167969	-386.578338623047	435.0889282226564	-862.3431396484377	-442.8836059570314	478.4260253906251	-912.8936767578127	-438.6028137207032	440.1195068359376	-891.8848876953127	-511.9453125000001	420.8692932128907	-854.0278320312502	-642.5928955078126	449.5469665527345	-876.0064697265627	-611.7261962890626	448.1226196289064	-792.0125122070315	-681.9309692382814	504.1090087890626	-833.305358886719	-644.2138061523439	286.3414001464844	-784.8364868164065	-649.8063354492189	280.2117309570313	-822.8179931640627	-680.0437622070314	308.7615051269532	-875.9381103515627	-357.0376281738282	800.791931152344	-550.2146606445314	-322.2939147949219	744.6630859375001	-549.6089477539064	-288.5220031738282	745.9705810546876	-549.1569213867189	-345.4014892578126	669.9508056640626	-578.9586791992189	-327.6742553710938	520.5452270507814	-601.8576660156251	-305.2414855957032	517.6893310546876	-730.3428955078126	-280.4582214355469	362.2293090820313	-695.3411254882814	-317.4174499511719	277.2174072265626	-639.2274169921876	-287.7265319824219	277.3945922851563	-677.3261108398439	-303.4995727539063	236.2973632812501	-715.6411743164064	-361.3451538085938	99.75608825683597	-682.1846923828126	-350.3251342773438	134.8557739257813	-764.3706665039064	-430.381805419922	85.53357696533205	-742.3397827148439	-206.3616180419922	56.90725326538087	-758.3478393554689	-205.8690948486329	50.42839813232423	-718.1787109375001	-248.7837066650391	32.74423980712891	-669.1577758789064	-236.2744903564454	536.7128906250001	-784.6646728515627	
957	4.78	-100.0856094360352	1680.48583984375	-729.6088867187501	-235.8262329101563	1649.393432617188	-749.5670776367189	-253.9044036865235	1628.337158203125	-615.8863525390626	-286.4236450195313	1535.682373046875	-679.1347045898439	-386.0102844238282	1217.455932617188	-718.2393188476564	-171.3155517578125	1438.96435546875	-689.5571899414064	-205.8326110839844	1498.008666992188	-826.9853515625002	-134.7231140136719	1425.581665039063	-930.638122558594	-91.26100158691408	1439.42236328125	-907.783386230469	-74.57649993896486	1394.298461914063	-945.5608520507815	26.53344917297364	1361.602416992188	-955.4932861328127	18.24755859375	1301.843383789063	-918.6643676757815	289.6611022949219	1347.16748046875	-852.1252441406252	291.1663208007813	1350.878295898438	-926.969421386719	372.2192687988282	1349.753784179688	-846.9837036132815	-178.439193725586	1468.928100585938	-541.6024780273439	-93.75792694091798	1345.851684570313	-461.9068298339845	-53.35544586181642	1365.777587890625	-478.6405029296876	-34.1241569519043	1310.92822265625	-464.1179199218751	54.30667877197267	1284.665283203125	-473.0851135253907	41.20594787597657	1240.507568359375	-541.8143920898439	303.0272521972657	1300.194580078125	-591.5102539062501	316.2904052734376	1298.108276367188	-519.8244628906251	396.4657592773439	1320.637451171875	-596.1678466796876	-244.0351257324219	1036.031494140625	-852.1008911132815	-249.1258697509766	1026.99169921875	-603.4033813476564	-421.0950012207032	1112.773559570313	-727.4597167968751	-434.0101318359376	1086.134155273438	-756.9459838867189	-441.3939819335939	1083.406860351563	-700.9964599609376	-255.9620971679688	719.3381958007814	-933.083435058594	-209.0395507812501	648.6017456054689	-923.9749755859377	-166.992919921875	656.6335449218751	-899.0594482421877	-232.0958099365235	593.0555419921876	-917.529479980469	-238.454574584961	546.7946777343751	-920.8005371093752	-385.9964904785157	435.3182678222657	-862.6407470703127	-442.3810119628907	478.5549621582032	-913.156188964844	-438.0954895019532	440.2376708984376	-892.1685180664065	-511.3880004882814	420.9814758300782	-854.3222656250002	-642.0348510742189	449.4553833007814	-876.3753662109377	-611.2862548828126	448.1404724121095	-792.305847167969	-681.5166015625001	503.9888305664064	-833.602722167969	-641.4777832031251	285.8290405273438	-787.7468261718752	-646.7107543945314	281.2671813964844	-824.5675048828127	-679.3446044921876	308.7177734375001	-876.297546386719	-356.9434204101563	801.3084716796877	-550.5365600585939	-322.6177368164063	744.9777221679689	-549.9947509765626	-288.7639465332032	746.0635375976564	-549.6804199218751	-346.2935485839844	670.3533325195314	-579.3803710937501	-329.2847595214844	520.8501586914064	-602.5220336914064	-307.2057495117188	518.0540771484376	-730.9940795898439	-281.9209899902344	362.5582275390626	-695.8569946289064	-318.2061157226563	277.4595947265626	-639.6624755859376	-288.4754333496094	277.7018737792969	-677.6210327148439	-304.1329650878907	236.5062255859376	-716.0792846679689	-361.3945922851563	99.83097839355472	-682.4467163085939	-350.5317077636719	134.7712554931641	-764.5904541015626	-430.4533996582032	85.48016357421876	-742.4300537109376	-206.4172668457032	56.81396865844728	-758.3867797851564	-205.8417053222657	50.47656250000001	-718.1724853515626	-248.766830444336	32.7573471069336	-669.2467651367189	-235.8798980712891	537.0443115234376	-784.9713134765627	
